<svg xmlns="http://www.w3.org/2000/svg" viewBox="0 0 610 420" fill="none">
  <defs>
    <linearGradient id="land" x1="0" y1="0" x2="1" y2="1">
      <stop offset="0" stop-color="#3a2a78"/><stop offset="1" stop-color="#241a55"/>
    </linearGradient>
  </defs>
  <g stroke="#8f7fd6" stroke-opacity=".55" stroke-width="1" stroke-linejoin="round" fill="url(#land)" fill-opacity=".55">
    <path d="M522.6,261.8L519.9,262.4L519.1,263.5L518.3,264.5L517.3,265.3L516.5,265.6L515.7,266.3L513.1,268.4L512.5,269.7L511.9,272.7L511.8,274.4L511.9,275.8L512.6,276.5L513.1,277.3L512.8,278.3L510.4,281.8L509.4,285.6L508.8,286.4L509.5,287.4L508.9,289.1L508.0,290.0L510.4,291.6L516.5,299.5L517.1,300.9L517.7,301.8L518.7,302.6L521.3,308.9L522.7,310.2L525.0,309.9L526.4,309.2L527.1,308.2L529.0,307.9L530.6,307.8L531.4,308.3L531.0,310.6L530.5,311.7L529.8,314.1L528.7,316.4L528.2,318.6L527.7,319.6L527.2,321.4L525.8,321.5L522.5,320.2L521.5,320.1L520.5,322.2L519.9,323.0L518.7,323.5L517.3,323.8L515.8,323.5L513.4,324.3L513.0,325.3L513.2,326.8L512.9,328.1L511.7,331.6L511.0,334.1L509.5,337.0L504.2,341.5L503.2,343.0L502.4,345.2L501.9,348.8L501.6,349.9L499.7,352.2L499.3,353.0L499.1,354.1L498.5,354.8L498.3,355.9L498.9,357.0L499.1,357.9L499.6,358.7L501.1,360.0L501.8,361.9L502.1,363.7L502.3,365.3L503.1,368.4L503.6,374.3L504.1,376.8L503.8,377.9L504.0,379.6L504.9,382.8L505.3,383.7L505.3,384.9L504.3,384.1L503.1,383.8L501.8,383.7L500.6,383.9L499.3,384.4L497.0,386.0L496.1,386.4L492.7,388.6L483.6,395.4L481.7,397.2L480.0,396.8L478.8,396.5L475.3,396.5L474.3,396.0L473.8,396.9L472.5,396.3L472.7,397.4L471.5,396.1L469.4,394.3L465.3,392.0L463.0,391.4L461.2,390.6L459.3,390.7L454.7,391.3L452.7,390.6L450.5,389.8L448.8,390.6L446.4,391.0L443.9,390.0L440.7,388.4L438.3,387.9L435.6,388.1L434.0,388.9L432.2,390.9L428.7,390.9L426.5,392.1L424.9,392.5L423.6,392.9L422.3,394.1L421.2,393.6L420.2,394.7L419.1,395.3L418.0,396.3L416.5,396.2L415.9,395.5L414.4,395.5L414.8,393.4L415.1,392.4L417.6,388.3L418.5,386.3L419.2,384.5L418.7,382.3L419.7,381.3L421.1,379.9L421.9,376.6L421.4,375.3L421.0,374.1L421.9,372.3L423.5,370.4L423.8,368.6L424.8,366.1L425.5,362.8L425.8,360.8L426.0,357.4L425.6,355.7L425.1,354.5L424.3,353.6L424.2,352.6L425.0,349.3L425.2,347.3L425.8,345.4L428.1,344.8L428.4,343.0L426.6,343.5L425.2,343.6L424.7,342.3L425.2,338.5L425.9,334.5L425.8,332.1L425.4,330.3L424.5,328.4L422.6,328.0L420.3,326.5L421.0,325.7L421.9,325.0L424.8,318.4L425.9,313.2L427.2,309.2L427.0,305.2L426.5,300.5L426.0,296.4L424.5,293.5L423.0,291.9L421.2,289.8L419.2,288.0L417.6,287.4L418.4,286.5L419.7,287.0L421.9,288.9L424.5,289.8L425.7,290.5L425.8,291.5L428.2,291.4L433.9,293.0L436.8,292.0L435.0,291.9L433.6,291.6L429.4,289.6L428.5,287.9L428.4,286.9L428.5,286.0L429.3,284.9L428.5,284.0L427.9,283.2L427.8,282.1L428.1,281.3L427.2,281.2L426.1,283.5L425.0,283.9L426.2,284.5L426.8,285.6L426.9,286.8L425.0,287.3L423.9,287.0L421.9,285.9L419.7,285.1L416.9,285.6L414.3,288.7L411.5,290.4L406.0,291.1L404.8,291.6L403.9,292.3L402.8,292.5L401.4,292.0L400.9,291.1L401.7,289.8L403.4,288.0L403.8,285.7L403.8,282.2L402.4,278.8L400.7,276.0L399.8,273.7L400.9,273.2L403.6,272.8L406.0,272.6L407.2,273.3L407.8,274.2L407.8,272.7L408.6,272.3L410.4,271.8L411.3,271.2L412.1,270.2L413.1,269.2L414.7,267.9L416.8,266.1L417.6,265.6L417.0,264.2L416.3,262.7L416.0,261.2L416.4,260.0L415.1,260.1L414.5,258.9L414.1,257.1L413.6,255.4L416.1,250.2L417.5,247.9L419.5,246.3L420.7,246.0L423.1,245.8L424.2,245.3L426.3,243.7L427.2,242.8L427.7,241.7L426.2,242.9L423.6,244.8L418.7,245.3L418.0,246.0L416.9,248.1L414.1,252.1L410.9,258.5L409.2,260.6L408.6,261.5L408.2,262.8L408.3,264.2L408.4,266.6L408.7,268.4L407.9,270.1L405.0,271.1L401.7,271.6L398.0,271.3L396.9,272.1L395.9,273.4L393.7,272.0L391.2,270.9L389.8,270.7L387.3,271.0L386.2,270.6L386.2,269.1L386.6,267.9L385.9,264.7L385.9,263.1L386.9,261.5L388.3,260.1L390.1,254.1L390.0,249.6L389.3,246.8L389.9,245.1L390.1,243.2L392.4,239.1L393.1,237.1L394.2,234.4L394.5,231.6L394.8,229.2L394.1,225.6L393.4,224.1L391.3,221.9L391.6,221.0L394.1,221.7L398.3,218.9L399.4,218.0L400.6,217.9L401.3,218.7L402.5,218.2L402.1,217.2L401.1,216.3L402.1,214.8L403.4,213.3L403.8,212.5L404.9,211.8L406.5,210.8L407.4,209.3L407.9,208.2L409.1,206.1L409.2,204.8L409.1,203.4L409.8,201.4L410.2,198.6L414.7,186.5L421.8,165.7L422.7,164.6L423.3,165.6L424.3,166.0L426.6,166.1L425.7,164.7L424.8,164.1L423.8,163.7L421.2,163.4L420.2,162.7L419.6,161.6L419.5,160.1L420.2,158.0L422.0,154.5L425.8,139.8L426.6,135.2L427.7,131.8L428.4,127.5L428.9,128.6L430.0,127.2L430.8,126.5L431.6,127.0L431.6,125.9L431.6,125.0L432.8,125.3L434.1,124.8L434.8,123.5L433.9,123.0L433.4,122.1L434.6,120.9L435.9,120.8L436.9,120.4L437.8,119.8L438.7,119.0L437.7,119.0L436.3,119.8L435.1,120.0L433.2,119.6L432.4,116.9L434.5,113.9L434.0,112.4L433.9,113.6L433.5,114.6L432.8,113.9L432.0,115.4L431.4,117.3L431.0,119.4L430.9,121.2L430.6,122.4L430.0,124.1L429.2,125.7L428.5,126.6L434.0,101.3L434.0,98.6L433.3,93.6L433.4,91.0L434.4,90.0L432.2,89.1L431.1,87.0L430.4,84.5L429.3,82.4L429.6,81.4L429.1,79.8L428.9,78.8L428.9,76.6L428.2,75.6L427.8,74.1L427.0,72.8L426.6,71.7L426.6,70.8L426.5,68.7L427.2,66.2L426.5,64.5L426.4,63.0L426.1,61.9L426.0,60.7L425.2,58.4L425.0,56.8L424.6,55.6L424.5,54.2L424.1,52.9L424.0,51.1L425.4,49.8L429.0,49.3L429.9,48.8L430.9,48.1L431.6,47.4L425.3,49.3L424.0,49.4L422.2,48.7L421.1,46.3L421.1,44.2L421.6,40.8L421.2,38.7L421.9,37.2L425.9,34.0L427.8,31.9L428.5,29.1L430.5,28.0L431.9,27.6L433.1,26.8L434.1,24.5L435.6,23.0L436.6,22.8L438.7,22.8L439.7,22.4L441.7,21.1L442.8,20.7L451.6,19.3L452.6,18.8L454.0,17.5L455.0,17.1L456.0,17.0L457.0,16.6L458.7,15.4L459.8,17.3L459.6,20.5L459.8,21.7L460.5,22.2L462.4,21.5L463.6,21.4L464.7,21.9L465.5,22.7L466.0,23.8L465.9,25.1L465.3,26.0L464.3,26.7L462.7,27.8L461.0,29.4L458.8,32.5L458.3,33.9L458.2,35.2L458.8,36.6L460.9,37.3L461.4,38.9L461.2,40.7L466.1,41.1L468.5,40.4L470.5,38.5L471.1,37.6L471.8,36.9L473.5,36.7L474.6,36.7L475.1,35.7L475.4,34.5L476.8,33.2L477.0,35.2L477.3,37.3L479.2,37.3L479.7,36.4L480.6,35.8L482.2,35.9L485.7,35.1L487.3,34.3L488.2,34.5L489.8,35.6L490.8,36.1L493.9,36.2L493.0,38.5L493.9,39.7L494.9,39.8L496.2,39.7L497.3,39.2L498.2,38.6L498.6,37.6L499.1,36.8L500.4,37.4L501.7,37.7L502.5,38.7L503.0,40.0L503.3,41.2L504.0,40.5L505.4,39.0L506.2,38.5L509.1,38.4L510.1,38.3L514.2,36.9L516.1,35.8L516.6,35.0L517.3,34.1L517.4,32.9L517.0,30.5L517.1,29.5L518.4,28.4L519.4,27.9L522.1,28.9L523.8,30.3L525.6,31.1L527.7,30.2L529.0,29.3L530.3,29.9L531.7,31.0L533.3,31.3L536.9,31.0L538.2,30.2L538.6,28.0L540.3,28.3L542.4,31.4L544.1,31.9L548.2,31.8L550.1,31.2L550.9,29.6L552.3,30.2L553.0,31.1L553.3,32.3L552.8,35.5L554.3,36.2L555.8,36.6L555.1,38.0L553.7,44.1L553.1,45.4L552.9,46.7L553.5,48.1L553.7,49.4L554.0,50.9L554.8,52.1L556.4,52.7L557.8,52.1L558.6,51.6L559.4,50.8L564.8,51.7L567.6,52.7L570.2,54.3L572.6,56.8L573.4,57.9L573.9,58.6L571.2,62.5L569.7,64.1L569.4,65.4L569.5,66.4L567.4,69.8L565.6,70.6L564.0,71.4L564.2,72.5L563.1,72.8L561.1,75.8L559.2,77.6L557.4,79.0L554.0,80.5L549.8,80.9L548.8,81.0L548.1,81.8L546.1,84.8L545.6,85.9L543.3,88.2L542.6,89.1L542.5,91.5L542.0,92.8L539.8,96.1L539.0,96.9L537.4,97.0L533.9,96.7L532.7,97.3L532.5,98.7L531.9,99.7L532.0,100.6L532.5,101.5L534.3,103.3L535.1,104.6L536.4,107.7L536.8,109.2L538.2,110.1L539.1,111.5L538.8,112.4L537.9,112.7L537.8,114.6L538.1,115.8L537.8,117.4L537.8,118.8L537.9,119.9L538.6,122.3L539.1,124.8L539.2,126.1L538.8,128.3L537.5,130.7L537.1,131.8L537.2,133.1L537.7,133.9L538.4,134.5L539.0,135.5L539.3,136.8L539.1,137.7L537.8,139.6L536.7,142.2L537.1,144.6L538.4,146.7L540.3,148.5L539.3,150.3L536.3,152.6L535.8,153.6L535.7,154.8L534.5,156.0L533.4,156.1L532.3,156.0L531.2,156.2L528.7,157.8L527.7,158.2L526.6,160.6L526.1,161.5L526.6,162.6L527.0,165.1L527.7,166.1L529.9,166.5L531.1,167.3L531.9,168.5L533.1,170.1L535.4,174.2L534.5,175.9L534.3,177.5L533.7,180.0L533.0,180.7L533.1,182.2L532.9,183.2L532.9,184.4L531.3,187.3L529.4,188.2L528.6,189.5L528.9,191.0L528.8,192.3L528.1,193.6L527.8,194.9L528.0,196.0L527.4,197.6L526.5,197.9L518.1,199.0L516.3,198.9L515.1,198.1L514.1,198.4L511.8,198.4L510.8,198.6L509.8,199.0L496.7,198.6L497.2,199.9L499.1,205.0L500.1,205.9L501.8,208.2L502.8,209.1L504.7,210.2L505.7,212.4L506.6,213.1L507.8,213.7L510.2,214.4L510.6,216.7L510.4,218.4L509.9,219.4L509.6,220.5L509.6,222.1L509.9,223.7L510.3,224.6L511.4,225.4L514.2,228.9L513.5,230.3L513.4,231.8L513.8,233.3L514.6,234.5L516.0,235.3L517.6,235.7L519.0,236.3L519.7,237.8L518.9,240.0L519.6,241.2L520.4,241.6L522.0,241.5L523.4,240.6L524.9,240.5L526.4,240.9L527.7,241.8L528.6,242.7L529.4,244.0L529.7,245.5L529.4,246.7L530.1,247.9L529.2,249.4L527.3,253.2L526.0,255.0L524.8,256.0L525.6,257.5L525.3,258.6L525.4,259.7L524.2,260.6L523.5,261.3L522.6,261.8Z M212.5,361.6L209.2,355.7L208.4,354.6L207.8,353.4L207.4,352.1L207.3,350.6L208.9,352.2L210.7,355.1L212.1,358.4L212.5,361.6Z M183.7,337.4L182.0,341.1L178.0,342.7L173.4,343.0L165.7,342.3L149.8,335.1L146.2,332.6L143.0,329.5L140.4,326.0L139.6,323.8L139.4,321.6L139.9,319.8L141.4,319.1L142.0,318.5L144.3,314.9L145.2,314.4L145.8,314.2L146.5,314.4L147.6,314.9L148.6,315.8L150.9,318.5L151.8,319.1L152.4,319.2L154.5,320.0L157.0,321.6L159.5,321.9L162.1,321.3L164.0,320.0L165.4,319.3L167.5,318.7L171.2,318.3L172.8,318.9L175.6,321.2L176.8,321.7L181.8,325.9L182.9,326.5L184.0,326.8L187.6,327.0L189.3,327.5L190.9,328.5L191.8,327.8L192.8,327.5L193.8,327.8L194.8,328.5L193.2,329.0L189.8,330.7L188.6,331.1L187.4,332.0L184.3,336.3L183.7,337.4Z M226.6,291.5L225.4,293.2L224.3,294.3L222.9,294.6L221.0,293.7L221.0,292.8L222.0,292.7L222.8,292.2L223.3,291.4L224.5,287.4L226.5,285.5L228.8,284.9L230.8,286.0L231.5,285.1L231.4,288.8L231.8,290.2L232.8,291.1L229.4,290.4L228.0,290.4L226.6,291.5Z M474.0,398.5L476.9,399.0L478.1,398.5L479.4,397.1L479.8,398.1L478.4,399.2L476.9,399.6L475.3,399.6L474.0,399.1Z M244.1,187.4L244.8,187.9L245.4,188.7L245.9,189.8L246.0,190.7L245.5,191.4L244.3,191.3L242.3,190.6L241.1,190.9L240.5,190.9L240.2,190.4L240.0,189.8L239.6,189.3L239.3,188.8L239.7,188.4L240.4,187.7L241.7,187.3L243.1,187.3L244.1,187.4Z M239.5,148.8L240.8,149.3L241.7,150.7L241.8,152.3L240.9,153.8L239.6,154.4L234.9,155.1L233.3,155.5L231.6,155.7L230.0,155.6L229.2,155.7L228.6,156.0L227.6,155.4L226.7,155.0L224.7,154.4L221.5,154.3L217.3,151.0L216.0,149.2L216.7,146.9L219.4,146.6L220.3,146.9L221.5,147.9L221.8,148.8L222.1,149.6L226.9,150.4L227.4,150.2L228.3,149.5L228.8,149.4L229.9,150.1L230.8,150.0L234.4,148.9L239.5,148.8Z M136.4,122.1L138.0,122.2L138.6,122.7L138.9,123.8L138.4,124.3L137.3,124.3L134.6,123.9L133.8,123.9L133.0,124.2L131.7,125.2L131.0,124.4L130.6,123.9L129.8,123.7L124.8,123.6L124.0,123.9L121.7,121.7L120.9,120.3L120.9,118.3L122.0,117.3L123.1,117.0L125.6,117.0L127.1,117.3L130.6,119.5L131.8,120.1L132.3,120.3L133.0,121.0L134.1,121.2L136.4,122.1Z M118.7,115.1L119.2,117.2L117.8,117.8L117.7,118.3L118.2,118.6L117.8,118.9L116.5,118.6L115.0,118.9L113.8,118.5L112.9,117.1L112.2,116.4L110.5,115.4L111.7,114.8L112.7,114.8L113.6,114.5L114.5,113.2L117.9,114.4L118.7,115.1Z M144.2,114.8L146.8,115.8L148.1,116.5L148.8,117.4L148.2,117.6L147.5,117.7L146.1,117.7L145.5,117.4L144.4,116.8L143.3,116.6L142.7,116.4L142.1,116.0L141.6,115.6L141.1,115.3L140.2,115.5L139.6,115.1L139.1,115.5L138.1,114.5L137.7,114.2L134.0,113.0L133.4,112.5L132.7,111.3L132.1,111.1L131.6,111.1L131.5,110.5L130.9,110.3L129.3,108.8L129.1,107.9L129.8,108.2L130.9,109.0L131.4,109.2L132.1,109.3L139.1,112.0L144.2,114.8Z M175.0,110.7L174.0,111.2L173.7,111.8L173.9,112.5L173.6,113.1L172.5,113.6L171.7,113.2L169.3,113.2L168.5,112.6L168.0,113.1L166.7,112.6L165.8,112.4L164.9,112.3L164.1,112.0L163.2,111.2L162.5,110.1L162.1,109.2L161.8,107.7L162.6,106.7L164.0,105.9L165.1,105.7L170.6,106.0L171.6,106.5L173.0,107.4L174.2,108.4L174.4,109.3L174.5,110.1L175.0,110.7Z M140.9,96.0L140.2,96.0L139.4,95.8L138.7,95.5L138.1,95.0L137.7,94.3L137.8,93.6L138.4,92.2L139.1,91.9L139.8,92.2L140.6,92.7L141.8,93.6L142.4,94.3L142.6,95.0L142.2,95.6L141.5,95.9L140.9,96.0Z M26.8,73.4L27.6,73.9L28.5,73.7L29.2,74.5L29.5,75.3L29.5,77.3L29.2,78.3L28.6,79.6L27.9,80.4L27.3,80.0L26.6,80.3L25.9,80.4L25.1,80.3L24.6,80.0L24.3,79.3L24.1,78.4L24.1,77.6L24.4,77.1L24.2,76.4L24.4,75.7L24.7,75.0L24.9,74.1L25.1,73.4L25.7,73.0L26.4,72.7L27.1,72.7L26.8,73.4Z M30.0,63.3L31.2,63.5L31.3,64.9L30.6,66.2L29.5,66.5L28.9,64.8L28.9,64.1L29.2,63.6L29.6,63.3Z M256.5,666.3L256.9,666.9L256.5,666.3Z M272.1,651.6L273.0,652.3L273.0,653.2L272.5,654.0L271.5,653.6L271.2,653.2L272.1,651.6Z M411.9,258.8L411.9,260.1L411.2,261.3L410.1,262.4L410.2,261.0L410.8,259.9L411.4,259.2Z"/>
  </g>
  <g stroke="#b9aef0" stroke-opacity=".22" stroke-dasharray="2 5">
    <rect x="12" y="44" width="246" height="174" rx="14"/>
    <rect x="116" y="264" width="138" height="108" rx="14"/>
  </g>
  <g fill="#cfc6f5" fill-opacity=".55" font-family="Figtree, sans-serif" font-size="11" letter-spacing="1.5">
    <text x="26" y="208">AÇORES</text>
    <text x="110" y="362">MADEIRA</text>
  </g>
</svg>
